<svg width="1380" height="366" viewBox="0 0 1380 366" fill="none" xmlns="http://www.w3.org/2000/svg">
<path fill-rule="evenodd" clip-rule="evenodd" d="M129.359 94.1235C154.408 82.6671 179.969 81.339 199.657 93.9303C221.355 107.961 229.002 134.381 228.603 159.007C228.154 186.684 218.167 218.504 198.922 248.096H228.263V284.449H0V248.096H29.4178C29.6088 220.478 39.3752 188.621 58.4286 158.935C75.9243 131.937 99.7854 107.649 129.359 94.1235ZM177.992 127.139C168.806 121.463 155.009 123.165 139.252 132.373C119.694 143.803 104.105 161.621 91.8999 180.444C76.4961 204.403 68.3648 229.033 67.9009 248.096H149.021C169.413 225.301 186.02 195.942 189.597 165.289C191.113 152.292 190.344 134.98 177.992 127.139Z" fill="#0672EC"/>
<path d="M369.077 54.2212H422.897L465.928 230.141H468.773L569.891 54.2212H623.711L583.406 297H541.204L568.943 130.208H566.809L471.974 296.289H440.56L401.203 129.852H398.951L370.974 297H328.772L369.077 54.2212ZM709.3 300.556C691.36 300.556 676.423 296.605 664.49 288.702C652.635 280.799 644.298 269.695 639.477 255.391C634.656 241.087 633.787 224.49 636.869 205.602C639.951 186.951 646.116 170.632 655.362 156.643C664.687 142.655 676.423 131.828 690.57 124.162C704.795 116.417 720.719 112.545 738.343 112.545C756.283 112.545 771.18 116.536 783.034 124.518C794.889 132.421 803.226 143.525 808.047 157.829C812.947 172.133 813.856 188.809 810.774 207.855C807.77 226.427 801.567 242.667 792.162 256.576C782.837 270.486 771.101 281.313 756.954 289.058C742.808 296.723 726.923 300.556 709.3 300.556ZM712.856 266.178C722.814 266.178 731.546 263.491 739.054 258.117C746.641 252.664 752.845 245.354 757.666 236.187C762.566 226.94 765.964 216.666 767.861 205.365C769.599 194.459 769.639 184.58 767.979 175.729C766.319 166.799 762.763 159.726 757.31 154.51C751.936 149.215 744.468 146.567 734.905 146.567C724.947 146.567 716.136 149.333 708.47 154.865C700.883 160.318 694.679 167.668 689.858 176.915C685.038 186.082 681.718 196.316 679.901 207.618C678.083 218.524 678.004 228.402 679.664 237.254C681.323 246.105 684.88 253.139 690.333 258.355C695.786 263.57 703.293 266.178 712.856 266.178ZM862.844 114.916H905.757L873.75 307.432C871.537 320.551 867.191 331.378 860.71 339.913C854.309 348.448 846.011 354.81 835.816 358.999C825.7 363.187 813.925 365.282 800.49 365.282C799.146 365.282 797.803 365.242 796.459 365.163C795.037 365.163 793.575 365.123 792.073 365.044L797.882 330.074C798.988 330.153 800.016 330.192 800.964 330.192C801.912 330.271 802.94 330.311 804.046 330.311C812.265 330.311 818.509 328.296 822.776 324.265C826.965 320.314 829.731 314.505 831.074 306.839L862.844 114.916ZM889.991 89.0732C883.194 89.0732 877.504 86.7813 872.92 82.1976C868.416 77.6139 866.44 72.1609 866.993 65.8385C867.546 59.3581 870.431 53.8655 875.647 49.3608C880.942 44.7771 887.027 42.4853 893.903 42.4853C900.699 42.4853 906.31 44.7771 910.736 49.3608C915.241 53.8655 917.217 59.3581 916.663 65.8385C916.189 72.1609 913.305 77.6139 908.01 82.1976C902.794 86.7813 896.787 89.0732 889.991 89.0732ZM919.538 297L949.885 114.916H992.798L962.451 297H919.538ZM977.625 88.8361C970.749 88.8361 965.059 86.5443 960.554 81.9605C956.05 77.3768 954.074 71.8843 954.627 65.4829C955.18 59.0815 958.065 53.5889 963.281 49.0052C968.576 44.4215 974.622 42.1296 981.418 42.1296C988.294 42.1296 993.944 44.4215 998.37 49.0052C1002.87 53.5889 1004.85 59.0815 1004.3 65.4829C1003.82 71.8843 1000.94 77.3768 995.644 81.9605C990.428 86.5443 984.421 88.8361 977.625 88.8361ZM1004.33 297L1008.95 269.735L1122.16 152.02L1122.63 150.479H1031.83L1037.87 114.916H1181.08L1176.33 144.196L1067.87 259.896L1067.39 261.437H1159.86L1154.05 297H1004.33ZM1246.28 300.675C1234.74 300.675 1224.7 298.62 1216.17 294.511C1207.63 290.322 1201.35 284.158 1197.32 276.018C1193.37 267.878 1192.38 257.841 1194.35 245.907C1196.09 235.634 1199.41 227.138 1204.31 220.42C1209.29 213.703 1215.38 208.329 1222.57 204.298C1229.84 200.189 1237.74 197.107 1246.28 195.052C1254.89 192.997 1263.66 191.496 1272.59 190.547C1283.5 189.441 1292.31 188.413 1299.03 187.465C1305.82 186.517 1310.92 185.094 1314.32 183.197C1317.72 181.222 1319.77 178.219 1320.48 174.188V173.477C1321.91 164.546 1320.48 157.631 1316.22 152.732C1311.95 147.832 1304.84 145.382 1294.88 145.382C1284.45 145.382 1275.67 147.674 1268.56 152.257C1261.45 156.841 1256.27 162.255 1253.03 168.498L1214.15 162.808C1219.05 151.744 1225.77 142.497 1234.3 135.068C1242.84 127.561 1252.68 121.949 1263.82 118.235C1275.04 114.442 1287.02 112.545 1299.74 112.545C1308.43 112.545 1316.93 113.572 1325.23 115.627C1333.6 117.682 1340.99 121.08 1347.39 125.822C1353.87 130.485 1358.62 136.847 1361.62 144.908C1364.7 152.969 1365.22 163.045 1363.16 175.136L1342.89 297H1301.64L1305.9 271.987H1304.48C1301.08 277.045 1296.66 281.787 1291.2 286.212C1285.75 290.559 1279.27 294.076 1271.76 296.763C1264.26 299.371 1255.76 300.675 1246.28 300.675ZM1262.52 269.142C1271.13 269.142 1278.88 267.443 1285.75 264.045C1292.63 260.567 1298.28 255.984 1302.7 250.294C1307.13 244.603 1309.89 238.4 1311 231.682L1314.56 210.226C1312.98 211.332 1310.53 212.359 1307.21 213.308C1303.89 214.256 1300.17 215.086 1296.06 215.797C1292.03 216.508 1288.04 217.141 1284.09 217.694C1280.14 218.247 1276.74 218.721 1273.9 219.116C1267.34 219.986 1261.33 221.408 1255.88 223.384C1250.5 225.36 1246.04 228.126 1242.48 231.682C1239.01 235.159 1236.83 239.664 1235.96 245.196C1234.7 253.02 1236.56 258.987 1241.53 263.096C1246.51 267.127 1253.51 269.142 1262.52 269.142Z" fill="#0672EC"/>
</svg>
